<svg xmlns="http://www.w3.org/2000/svg" viewBox="0 0 450.33 391.96"><defs><style>.cls-1{fill:#f47822;}.cls-2{fill:#2f9dd9;}.cls-3{fill:#11b24c;}</style></defs><g id="Слой_2" data-name="Слой 2"><g id="Слой_1-2" data-name="Слой 1"><path id="gif-ico" class="cls-1" d="M300.47,268.28H0V392H255.21ZM122,352.05a23.59,23.59,0,0,1-8.22,6.56c-3.79,1.94-8.69,2.87-14.69,2.87q-11.08,0-18.29-7.21t-7.2-18.56V322.59q0-11.37,6.92-18.57c4.62-4.8,10.63-7.2,17.83-7.2s13,1.85,17.09,5.54a17.87,17.87,0,0,1,5.91,14.41l-.09.28h-10a11.64,11.64,0,0,0-3.32-8.59c-2.22-2.13-5.36-3.24-9.52-3.24a13.07,13.07,0,0,0-10.53,4.9c-2.68,3.23-4,7.39-4,12.38v13.21q0,7.62,4.16,12.46a13.63,13.63,0,0,0,10.9,4.9A23,23,0,0,0,107,352a11.35,11.35,0,0,0,4.43-2.77v-13H98.19v-7.85h23.64v23.73Zm26.88,8.5H138.37V297.74H148.9Zm56.89-54.49H176.05v19.21h25.31v8.4H176.05v26.79H165.52V297.65h40.27v8.41Z"/><g id="jpg-ico"><path class="cls-2" d="M372.43,134.17H72V257.85H327.17ZM169.69,208.71q0,9-5.54,14.41c-3.7,3.61-8.41,5.36-14.23,5.36q-9.28,0-14.69-4.71T130,209.92l.09-.28h10.16c0,3.6.83,6.19,2.59,7.94a9.46,9.46,0,0,0,7.11,2.59,8.28,8.28,0,0,0,6.74-3.14c1.76-2,2.59-4.81,2.59-8.32v-44h10.44Zm56.16-10.25c-4,3.51-9.33,5.36-16.26,5.36H196v23.74H185.48V164.75h24.11c6.93,0,12.38,1.75,16.26,5.36s5.91,8.31,5.91,14.13A18.51,18.51,0,0,1,225.85,198.46ZM291,219.06a23.51,23.51,0,0,1-8.22,6.56c-3.78,1.94-8.68,2.86-14.68,2.86q-11.08,0-18.29-7.2t-7.21-18.57V189.59q0-11.35,6.93-18.56c4.62-4.8,10.62-7.21,17.83-7.21s13,1.85,17.09,5.55a17.84,17.84,0,0,1,5.91,14.41l-.09.27h-10a11.62,11.62,0,0,0-3.33-8.59c-2.21-2.12-5.35-3.23-9.51-3.23a13,13,0,0,0-10.53,4.9c-2.68,3.23-4,7.38-4,12.37v13.21q0,7.62,4.16,12.47a13.66,13.66,0,0,0,10.9,4.9,23,23,0,0,0,7.94-1.11,11.47,11.47,0,0,0,4.43-2.77v-13H267.13v-7.85h23.65v23.74Z"/><path class="cls-2" d="M209.5,173.15H195.92v22.17H209.5c3.88,0,6.83-1,8.77-3.14a11.1,11.1,0,0,0,3-7.94,11.28,11.28,0,0,0-3-8C216.33,174.26,213.47,173.15,209.5,173.15Z"/></g><path id="svg-ico" class="cls-3" d="M450.33,0H149.86V123.68H405.07ZM244.63,90.33c-4.06,3.15-9.42,4.62-16.07,4.62a28,28,0,0,1-16.72-5.08q-7.07-5.12-6.93-14.41l.1-.27h10.06c0,3.78,1.3,6.65,3.88,8.49a15.52,15.52,0,0,0,9.52,2.87c3.69,0,6.56-.74,8.68-2.31a7.64,7.64,0,0,0,3-6.37,8.41,8.41,0,0,0-2.77-6.47c-1.85-1.66-5.18-3.14-9.89-4.53-6.74-1.84-12-4.34-15.61-7.39a14.71,14.71,0,0,1-5.54-11.91,15.67,15.67,0,0,1,6-12.56c4.06-3.33,9.23-4.9,15.51-4.9,6.84,0,12.2,1.85,16.26,5.45a16.89,16.89,0,0,1,5.91,13.49l-.09.27H239.92a10.2,10.2,0,0,0-3.32-7.94,13,13,0,0,0-8.78-3c-3.51,0-6.28.84-8.22,2.5a8,8,0,0,0-2.86,6.46,7.15,7.15,0,0,0,3.14,6c2.12,1.57,5.54,3,10.43,4.43,6.56,1.85,11.64,4.34,15.06,7.58a15.82,15.82,0,0,1,5.17,12.19A14.5,14.5,0,0,1,244.63,90.33Zm45.91,3.79h-10L258.12,31.31h11.17l15,45.82,1.11,4.61h.27l1.11-4.52,15.06-45.91H313Zm78.33-8.5a23.54,23.54,0,0,1-8.23,6.56c-3.78,1.94-8.68,2.87-14.68,2.87q-11.08,0-18.29-7.21t-7.21-18.56V56.16q0-11.37,6.93-18.57c4.62-4.8,10.62-7.2,17.83-7.2s13,1.85,17.09,5.54a17.87,17.87,0,0,1,5.91,14.41l-.09.28h-10A11.64,11.64,0,0,0,354.83,42c-2.22-2.22-5.36-3.24-9.52-3.24a13.07,13.07,0,0,0-10.53,4.9c-2.68,3.23-4,7.39-4,12.38V69.28q0,7.62,4.16,12.46a13.63,13.63,0,0,0,10.9,4.9,23,23,0,0,0,7.94-1.11,11.35,11.35,0,0,0,4.43-2.77v-13H345V61.89h23.65V85.62Z"/></g></g></svg>